<?xml version="1.0" encoding="UTF-8" standalone="no" ?>
<!DOCTYPE svg PUBLIC "-//W3C//DTD SVG 1.1//EN" "http://www.w3.org/Graphics/SVG/1.1/DTD/svg11.dtd">
<svg xmlns="http://www.w3.org/2000/svg" xmlns:xlink="http://www.w3.org/1999/xlink" version="1.1" width="500" height="500" viewBox="0 0 500 500" xml:space="preserve">
<desc>Created with Fabric.js 4.6.0</desc>
<defs>
</defs>
<g transform="matrix(2.51 0 0 2.41 250 250)" id="-vMWUPPkyt6TXdHKGD0_e"  >
<path style="stroke: rgb(137,187,104); stroke-width: 0; stroke-dasharray: none; stroke-linecap: butt; stroke-dashoffset: 0; stroke-linejoin: miter; stroke-miterlimit: 4; fill: rgb(243,239,236); fill-rule: nonzero; opacity: 1;" vector-effect="non-scaling-stroke"  transform=" translate(0, 0)" d="M -98.5 -89.20767 C -98.5 -94.33967999999999 -94.50542 -98.5 -89.57786 -98.5 L 90.34288 -98.5 L 90.34288 -98.5 C 94.84792999999999 -98.5 98.5 -94.69641 98.5 -90.00444 L 98.5 89.42702999999999 L 98.5 89.42702999999999 C 98.5 94.43788999999998 94.59972 98.49999999999999 89.78847999999999 98.49999999999999 L -90.55350000000001 98.49999999999999 L -90.55350000000001 98.49999999999999 C -94.94223000000001 98.49999999999999 -98.50000000000001 94.79461999999998 -98.50000000000001 90.22379999999998 z" stroke-linecap="round" />
</g>
<g transform="matrix(0.96 0 0 0.96 235.88 250.88)" id="bxxEeUdkg0cVcwd2b3uMU"  >
<path style="stroke: rgb(23,217,251); stroke-width: 0; stroke-dasharray: none; stroke-linecap: butt; stroke-dashoffset: 0; stroke-linejoin: miter; stroke-miterlimit: 4; fill: rgb(224,123,141); fill-rule: nonzero; opacity: 1;" vector-effect="non-scaling-stroke"  transform=" translate(-225, -225)" d="M 225 0 C 349.2 0 450 100.8 450 225 C 450 349.2 349.2 450 225 450 C 100.8 450 0 349.2 0 225 C 0 100.8 100.8 0 225 0 z" stroke-linecap="round" />
</g>
<g transform="matrix(0.03 0 0 -0.03 403.81 148.73)" id="Fg-t77EE9NB9oJADCC7UQ"  >
<path style="stroke: none; stroke-width: 1; stroke-dasharray: none; stroke-linecap: butt; stroke-dashoffset: 0; stroke-linejoin: miter; stroke-miterlimit: 4; fill: rgb(16,152,55); fill-rule: nonzero; opacity: 1;" vector-effect="non-scaling-stroke"  transform=" translate(-23490, -14419.51)" d="M 22410 16129 C 22251 16098 22087 15949 21974 15731 C 21947 15679 21946 15678 21936 15701 C 21930 15714 21923 15727 21919 15730 C 21916 15733 21902 15755 21890 15780 C 21809 15940 21660 16075 21530 16108 C 21472 16122 21320 16123 21255 16110 C 21092 16076 21035 15957 21108 15807 C 21160 15701 21278 15570 21412 15468 C 21444 15445 21470 15421 21470 15417 C 21470 15413 21363 15410 21232 15412 C 21041 15414 20990 15412 20977 15401 C 20962 15389 20960 15364 20960 15211 C 20961 15017 20969 14953 20996 14933 C 21007 14925 21042 14920 21087 14920 L 21160 14920 L 21160 13875 L 21160 12830 L 21528 12825 C 22002 12819 22016 12819 22338 12825 L 22610 12831 L 22610 12780 L 22610 12730 L 23343 12730 C 23972 12730 24079 12728 24096 12715 C 24109 12705 24141 12701 24205 12701 C 24269 12701 24301 12705 24314 12715 C 24331 12728 24438 12730 25067 12730 L 25800 12730 L 25800 13485 L 25800 14240 L 25910 14240 L 26020 14240 L 26020 14490 L 26020 14740 L 25550 14740 C 25292 14740 25080 14742 25080 14745 C 25080 14748 25117 14785 25161 14827 C 25364 15021 25404 15185 25275 15299 C 25230 15338 25179 15361 25090 15383 C 24930 15422 24795 15413 24670 15357 C 24558 15305 24385 15145 24310 15023 C 24285 14983 24260 14950 24254 14950 C 24248 14950 24237 14969 24231 14993 C 24192 15121 24066 15329 23972 15418 C 23851 15532 23756 15571 23575 15577 C 23462 15582 23433 15579 23360 15560 C 23173 15510 23086 15423 23085 15285 C 23085 15227 23090 15204 23117 15147 C 23176 15022 23274 14904 23418 14785 C 23435 14770 23450 14754 23450 14749 C 23450 14744 23316 14740 23130 14740 L 22810 14740 L 22810 14825 L 22810 14910 L 22900 14910 C 22976 14910 22991 14913 22999 14928 C 23011 14950 23002 15347 22989 15371 C 22974 15400 22902 15408 22708 15405 C 22604 15403 22518 15405 22515 15409 C 22513 15414 22523 15423 22537 15429 C 22634 15473 22816 15631 22878 15724 C 22998 15907 22902 16066 22637 16121 C 22539 16141 22482 16143 22410 16129 z M 22555 16091 C 22625 16081 22734 16050 22727 16043 C 22724 16040 22687 16046 22645 16055 C 22471 16094 22340 16057 22216 15935 C 22127 15848 22011 15667 22024 15635 C 22028 15623 21994 15603 21980 15609 C 21970 15613 21982 15646 22017 15715 C 22136 15945 22301 16081 22485 16099 C 22491 16099 22522 16096 22555 16091 z M 21527 16061 C 21549 16055 21579 16041 21592 16030 C 21614 16011 21613 16011 21565 16031 C 21499 16058 21335 16059 21258 16033 C 21193 16010 21150 15962 21150 15912 C 21150 15853 21211 15745 21301 15650 C 21344 15604 21378 15565 21377 15563 C 21371 15558 21234 15694 21203 15735 C 21081 15896 21094 16013 21239 16057 C 21306 16078 21461 16080 21527 16061 z M 22626 15974 C 22703 15954 22754 15923 22758 15892 C 22766 15837 22654 15712 22511 15616 C 22427 15560 22195 15442 22160 15438 C 22136 15435 22135 15437 22138 15482 C 22141 15514 22136 15539 22124 15560 C 22102 15596 22107 15614 22172 15728 C 22263 15888 22393 15990 22507 15990 C 22537 15990 22590 15983 22626 15974 z M 21529 15956 C 21616 15912 21682 15841 21743 15725 C 21802 15614 21813 15578 21815 15492 C 21816 15447 21814 15407 21810 15405 C 21801 15399 21700 15452 21646 15491 C 21623 15507 21576 15542 21540 15567 C 21439 15640 21288 15797 21256 15861 C 21240 15895 21232 15924 21236 15934 C 21248 15964 21299 15979 21393 15980 C 21467 15980 21488 15976 21529 15956 z M 22796 15952 C 22814 15940 22830 15903 22830 15873 C 22829 15800 22739 15688 22600 15588 C 22564 15562 22527 15534 22518 15525 C 22508 15517 22495 15510 22489 15510 C 22467 15510 22388 15456 22378 15434 C 22372 15421 22363 15413 22357 15417 C 22352 15420 22354 15426 22361 15431 C 22387 15447 22353 15440 22304 15420 C 22211 15380 22242 15416 22347 15470 C 22568 15584 22737 15721 22788 15828 L 22814 15883 L 22793 15922 C 22772 15959 22773 15968 22796 15952 z M 21695 15908 C 21721 15882 21811 15752 21814 15736 C 21815 15730 21825 15709 21837 15690 C 21863 15648 21876 15600 21862 15600 C 21857 15600 21834 15638 21812 15684 C 21774 15764 21726 15843 21680 15903 C 21654 15936 21662 15938 21695 15908 z M 22076 15537 C 22092 15522 22064 15511 22015 15514 L 21960 15517 L 21960 15479 C 21960 15457 21955 15440 21949 15440 C 21943 15440 21940 15455 21942 15478 C 21946 15529 21919 15529 21905 15477 C 21899 15456 21890 15438 21885 15437 C 21869 15434 21860 15523 21875 15535 C 21888 15546 22066 15548 22076 15537 z M 22550 15520 C 22550 15515 22543 15510 22535 15510 C 22527 15510 22520 15515 22520 15520 C 22520 15526 22527 15530 22535 15530 C 22543 15530 22550 15526 22550 15520 z M 23734 15505 C 23844 15465 23959 15374 24030 15270 C 24096 15172 24198 14955 24182 14947 C 24178 14945 24153 14944 24127 14944 L 24079 14945 L 24041 15038 C 23987 15167 23945 15234 23870 15311 C 23735 15449 23636 15477 23415 15440 C 23204 15404 23184 15271 23358 15065 C 23438 14971 23626 14807 23698 14771 C 23739 14750 23721 14740 23641 14740 C 23563 14740 23561 14741 23503 14784 C 23367 14887 23223 15051 23169 15165 C 23131 15243 23129 15330 23163 15380 C 23211 15451 23308 15502 23425 15520 C 23510 15532 23680 15524 23734 15505 z M 23621 15396 C 23674 15389 23741 15360 23779 15327 C 23869 15250 23953 15122 24000 14993 C 24022 14933 24022 14929 24005 14894 C 23994 14870 23989 14840 23992 14802 L 23995 14745 L 23915 14742 L 23835 14740 L 23739 14807 C 23589 14914 23516 14975 23430 15068 C 23334 15171 23297 15238 23302 15301 C 23305 15341 23309 15347 23343 15363 C 23363 15374 23393 15384 23408 15386 C 23507 15401 23557 15407 23570 15404 C 23578 15402 23601 15398 23621 15396 z M 21915 15369 C 21919 15364 21903 15340 21881 15317 C 21845 15281 21842 15275 21857 15268 C 21870 15263 21867 15261 21844 15261 C 21811 15260 21761 15220 21793 15220 C 21803 15220 21810 15216 21810 15210 C 21810 15197 21797 15197 21783 15211 C 21774 15220 21764 15218 21743 15204 C 21728 15193 21706 15180 21696 15175 C 21686 15169 21672 15149 21666 15130 C 21652 15085 21616 15074 21626 15117 C 21640 15176 21650 15189 21692 15208 C 21716 15218 21771 15261 21815 15303 C 21859 15345 21898 15379 21902 15380 C 21906 15380 21912 15375 21915 15369 z M 21746 15353 C 21780 15347 21780 15347 21763 15327 C 21732 15293 21665 15252 21635 15248 C 21608 15245 21604 15239 21578 15155 C 21563 15106 21550 15062 21550 15058 C 21550 15054 21569 15046 21592 15040 C 21650 15024 21709 15042 21788 15102 C 21823 15129 21854 15149 21857 15146 C 21859 15144 21862 15104 21862 15058 L 21863 14975 L 21639 14973 C 21516 14971 21327 14973 21220 14978 L 21025 14985 L 21028 15080 C 21029 15132 21025 15212 21020 15258 C 21014 15303 21012 15345 21015 15351 C 21022 15361 21682 15363 21746 15353 z M 25070 15333 C 25157 15312 25240 15269 25268 15231 C 25342 15129 25248 14953 25028 14783 C 24971 14740 24969 14739 24903 14742 L 24835 14745 L 24925 14810 C 25043 14895 25149 15001 25183 15069 C 25217 15139 25217 15157 25180 15202 C 25140 15250 25055 15279 24934 15287 C 24834 15293 24781 15281 24692 15232 C 24626 15196 24504 15070 24446 14978 C 24419 14935 24394 14900 24391 14900 C 24388 14901 24372 14912 24355 14925 L 24326 14949 L 24375 15022 C 24445 15124 24562 15237 24644 15283 C 24682 15303 24717 15320 24722 15320 C 24728 15320 24746 15327 24763 15335 C 24823 15362 24956 15362 25070 15333 z M 22934 15341 C 22944 15326 22953 14973 22944 14968 C 22939 14965 22790 14965 22613 14968 L 22290 14973 L 22290 15016 C 22290 15067 22282 15090 22266 15090 C 22259 15090 22240 15109 22223 15133 C 22192 15175 22110 15326 22110 15340 C 22110 15350 22928 15351 22934 15341 z M 22030 15322 C 22030 15312 22034 15300 22039 15295 C 22044 15289 22060 15254 22074 15217 C 22106 15136 22149 15061 22197 15002 C 22232 14959 22235 14942 22206 14953 C 22185 14961 22128 15041 22092 15114 C 22035 15227 21999 15314 22004 15327 C 22012 15346 22030 15343 22030 15322 z M 21962 14053 C 21960 12882 21960 12870 21940 12870 C 21920 12870 21920 12882 21918 14037 C 21915 15022 21917 15208 21929 15232 C 21940 15255 21945 15258 21954 15248 C 21962 15239 21964 14899 21962 14053 z M 25034 15221 C 25106 15205 25150 15175 25150 15141 C 25150 15077 25022 14941 24858 14830 C 24720 14737 24732 14740 24550 14740 C 24413 14740 24390 14742 24390 14755 C 24390 14797 24517 14998 24596 15080 C 24733 15224 24849 15261 25034 15221 z M 21855 14913 C 21862 14911 21864 14567 21863 13902 L 21861 12895 L 21538 12895 C 21286 12895 21215 12898 21216 12908 C 21217 12914 21218 13371 21219 13921 L 21220 14922 L 21533 14919 C 21704 14917 21850 14914 21855 14913 z M 22202 14890 C 22246 14863 22290 14863 22290 14890 C 22290 14909 22297 14910 22520 14910 L 22750 14910 L 22750 14825 L 22750 14740 L 22570 14740 L 22390 14740 L 22390 14490 L 22390 14240 L 22500 14240 L 22610 14240 L 22610 13565 L 22610 12890 L 22358 12892 L 22105 12895 L 22102 13903 L 22100 14910 L 22135 14910 C 22154 14910 22184 14901 22202 14890 z M 24317 14882 C 24332 14872 24337 14763 24323 14749 C 24317 14743 24260 14741 24184 14742 L 24055 14745 L 24052 14803 C 24048 14888 24051 14890 24189 14890 C 24253 14890 24310 14886 24317 14882 z M 24010 14677 C 24010 14670 24000 14658 23988 14650 C 23968 14637 23862 14635 23235 14632 L 22505 14629 L 22500 14462 C 22495 14309 22493 14295 22476 14292 C 22466 14290 22454 14294 22450 14301 C 22440 14316 22437 14650 22446 14673 C 22452 14689 22512 14690 23231 14690 C 23851 14690 24010 14687 24010 14677 z M 24174 14681 C 24185 14664 24022 14526 23945 14487 C 23878 14453 23840 14445 23840 14464 C 23840 14497 23860 14528 23886 14534 C 23917 14542 24007 14598 24066 14645 C 24088 14663 24117 14680 24131 14683 C 24144 14685 24158 14688 24162 14689 C 24166 14689 24171 14686 24174 14681 z M 25961 14680 C 25967 14631 26031 14635 25155 14633 C 24710 14631 24339 14634 24331 14639 C 24323 14644 24320 14655 24325 14669 L 24331 14690 L 25146 14690 C 25681 14690 25960 14687 25961 14680 z M 24310 14558 C 24340 14507 24386 14443 24412 14417 C 24458 14368 24479 14311 24453 14303 C 24436 14297 24373 14357 24331 14419 C 24284 14488 24220 14606 24220 14623 C 24220 14639 24241 14661 24250 14655 C 24253 14653 24280 14610 24310 14558 z M 24180 14572 C 24180 14568 24200 14529 24225 14486 L 24270 14407 L 24270 13583 L 24270 12760 L 24205 12760 L 24140 12760 L 24140 13658 C 24140 14556 24141 14580 24172 14580 C 24176 14580 24180 14577 24180 14572 z M 22718 13513 L 22720 12790 L 22695 12790 L 22670 12790 L 22670 13516 L 22670 14241 L 22693 14238 L 22715 14235 L 22718 13513 z" stroke-linecap="round" />
</g>
<g transform="matrix(0.03 0 0 -0.03 175.25 161.67)" id="k2HpdZxFfzHvwsEnx0qcC"  >
<path style="stroke: none; stroke-width: 1; stroke-dasharray: none; stroke-linecap: butt; stroke-dashoffset: 0; stroke-linejoin: miter; stroke-miterlimit: 4; fill: rgb(0,0,0); fill-rule: nonzero; opacity: 1;" vector-effect="non-scaling-stroke"  transform=" translate(-14889.92, -13933.09)" d="M 12940 15275 C 12933 15258 12769 14770 12575 14190 C 12381 13610 12209 13106 12193 13070 C 12176 13034 12146 12970 12125 12926 C 12065 12804 12067 12691 12130 12628 C 12153 12605 12167 12600 12207 12600 C 12266 12600 12310 12625 12346 12680 C 12374 12721 12462 12964 12571 13297 C 12631 13477 12659 13530 12696 13530 C 12733 13530 12792 13444 12959 13145 C 13189 12735 13196 12722 13243 12673 C 13333 12579 13431 12595 13507 12717 C 13524 12743 13626 12950 13735 13176 C 13843 13402 13943 13599 13957 13614 C 13974 13633 13990 13640 14008 13638 C 14049 13633 14075 13570 14206 13165 C 14335 12765 14371 12677 14428 12630 C 14498 12572 14541 12566 14870 12565 C 15207 12565 15272 12568 15344 12588 C 15372 12595 15411 12601 15430 12601 C 15564 12597 15582 12599 15619 12627 C 15661 12659 15674 12675 15732 12761 C 15765 12810 15787 12831 15825 12850 L 15875 12875 L 16190 12875 L 16506 12875 L 16555 12850 C 16594 12829 16615 12807 16664 12736 C 16726 12644 16777 12601 16850 12579 C 16900 12564 17376 12556 17487 12568 C 17608 12582 17655 12606 17682 12668 C 17701 12709 17702 12722 17693 12775 C 17685 12820 17555 13110 17175 13933 C 16895 14538 16652 15051 16634 15075 C 16615 15099 16587 15124 16571 15131 C 16549 15141 16534 15161 16510 15217 C 16492 15257 16474 15292 16470 15295 C 16466 15297 16452 15271 16438 15237 C 16234 14733 15625 13271 15609 13249 C 15590 13222 15585 13220 15517 13220 C 15426 13220 15400 13205 15400 13151 C 15400 13131 15405 13109 15411 13103 C 15418 13096 15415 13081 15401 13054 C 15383 13021 15375 13017 15378 13041 C 15379 13044 15369 13053 15356 13060 C 15335 13071 15322 13094 15264 13225 C 15256 13242 15117 13640 14955 14110 C 14792 14580 14645 14994 14628 15028 C 14606 15074 14586 15101 14554 15123 C 14517 15149 14507 15164 14489 15219 C 14477 15255 14464 15289 14460 15293 C 14456 15297 14306 15007 14125 14648 C 13944 14289 13792 13992 13786 13988 C 13761 13971 13730 13982 13698 14019 C 13680 14041 13557 14267 13426 14522 C 13295 14776 13171 15010 13151 15040 C 13131 15070 13097 15106 13076 15121 C 13048 15139 13023 15171 12994 15226 L 12951 15304 L 12940 15275 z M 16209 13681 C 16224 13665 16274 13572 16320 13473 C 16394 13318 16405 13288 16405 13240 L 16405 13185 L 16184 13182 L 15963 13180 L 15950 13210 C 15933 13251 15941 13283 16006 13445 C 16113 13713 16145 13750 16209 13681 z" stroke-linecap="round" />
</g>
<g transform="matrix(0.03 0 0 -0.03 288.52 163.33)" id="eDqPJbynlFCQFOf4lTmGk"  >
<path style="stroke: none; stroke-width: 1; stroke-dasharray: none; stroke-linecap: butt; stroke-dashoffset: 0; stroke-linejoin: miter; stroke-miterlimit: 4; fill: rgb(0,0,0); fill-rule: nonzero; opacity: 1;" vector-effect="non-scaling-stroke"  transform=" translate(-19151.66, -13870.52)" d="M 18030 15119 C 18030 15081 18023 15028 18015 15002 C 18001 14961 18000 14818 18002 13845 L 18005 12734 L 18031 12685 C 18045 12657 18071 12625 18090 12612 C 18154 12569 18188 12565 18515 12565 C 18862 12565 18897 12570 18958 12633 C 19018 12695 19023 12720 19030 12995 C 19039 13346 19045 13357 19187 13279 C 19296 13219 19322 13191 19381 13077 C 19522 12800 19651 12665 19852 12582 C 19899 12563 19938 12555 20008 12552 C 20121 12547 20181 12561 20225 12606 C 20268 12649 20276 12692 20250 12742 C 20239 12763 20230 12790 20230 12801 C 20230 12861 20188 12878 20097 12854 C 20003 12830 19932 12838 19869 12882 C 19803 12928 19740 13006 19689 13104 C 19619 13237 19633 13306 19742 13365 C 19972 13488 20115 13628 20214 13827 C 20279 13959 20304 14070 20302 14230 C 20300 14518 20172 14751 19910 14944 C 19705 15096 19533 15153 19207 15180 C 19145 15186 18855 15190 18563 15190 L 18030 15190 L 18030 15119 z M 19418 14864 C 19801 14785 20029 14543 20030 14215 C 20030 14032 19985 13925 19850 13789 C 19755 13693 19674 13642 19552 13602 C 19481 13579 19461 13577 19311 13578 C 19128 13579 19085 13570 19074 13526 C 19071 13512 19071 13495 19075 13488 C 19078 13481 19075 13483 19066 13494 C 19033 13535 19029 13608 19032 14207 C 19035 14787 19035 14799 19056 14827 C 19095 14880 19133 14892 19243 14886 C 19298 14882 19376 14873 19418 14864 z" stroke-linecap="round" />
</g>
<g transform="matrix(0.03 0 0 -0.03 242.47 268.17)" id="Ket4sQdo4MaM6-8_x6l93"  >
<path style="stroke: none; stroke-width: 1; stroke-dasharray: none; stroke-linecap: butt; stroke-dashoffset: 0; stroke-linejoin: miter; stroke-miterlimit: 4; fill: rgb(0,0,0); fill-rule: nonzero; opacity: 1;" vector-effect="non-scaling-stroke"  transform=" translate(-17419.27, -9925.41)" d="M 17332 11283 C 17319 11259 17218 11015 16825 10060 C 16628 9582 16489 9255 16475 9241 C 16454 9219 16444 9217 16381 9219 C 16322 9221 16308 9218 16291 9201 C 16267 9177 16264 9134 16284 9105 C 16305 9073 16313 8885 16294 8831 C 16283 8799 16282 8780 16289 8761 C 16294 8747 16301 8719 16304 8699 C 16315 8635 16386 8592 16452 8611 C 16501 8624 16534 8656 16593 8744 C 16635 8808 16655 8829 16695 8849 L 16744 8875 L 17060 8875 L 17375 8875 L 17425 8850 C 17464 8831 17486 8809 17523 8755 C 17549 8717 17590 8666 17614 8643 C 17683 8576 17723 8569 18020 8563 C 18386 8556 18491 8572 18544 8643 C 18572 8681 18576 8762 18552 8830 C 18541 8860 18376 9223 18185 9635 C 17994 10048 17775 10522 17698 10690 C 17548 11016 17505 11091 17450 11128 C 17426 11144 17404 11174 17378 11226 C 17347 11289 17340 11298 17332 11283 z M 17084 9677 C 17116 9643 17260 9343 17280 9271 C 17287 9245 17287 9223 17280 9206 L 17270 9180 L 17056 9180 C 16814 9180 16814 9180 16817 9255 C 16819 9312 16953 9641 16990 9680 C 17026 9718 17045 9718 17084 9677 z" stroke-linecap="round" />
</g>
<g transform="matrix(0.03 0 0 -0.03 457.24 267.95)" id="ZeDaZljl9mg2JdFH4yfbo"  >
<path style="stroke: none; stroke-width: 1; stroke-dasharray: none; stroke-linecap: butt; stroke-dashoffset: 0; stroke-linejoin: miter; stroke-miterlimit: 4; fill: rgb(0,0,0); fill-rule: nonzero; opacity: 1;" vector-effect="non-scaling-stroke"  transform=" translate(-25500.84, -9934.06)" d="M 25420 11213 C 25247 11197 25153 11172 25035 11112 C 24920 11053 24800 10938 24752 10840 C 24668 10667 24642 10432 24689 10266 C 24738 10092 24850 9926 25041 9747 L 25145 9649 L 25160 9710 L 25175 9771 L 25251 9708 C 25293 9673 25408 9581 25506 9503 C 25832 9245 25894 9164 25860 9040 C 25837 8956 25782 8907 25665 8868 C 25603 8848 25576 8845 25425 8845 C 25270 8845 25246 8848 25159 8873 C 25021 8912 25023 8911 24815 9050 C 24727 9109 24715 9113 24673 9099 C 24635 9087 24624 9060 24634 9002 C 24637 8982 24642 8940 24643 8909 C 24647 8849 24669 8804 24717 8758 C 24752 8725 24879 8650 24901 8650 C 24911 8650 24921 8665 24929 8692 C 24936 8715 24946 8744 24950 8756 L 24959 8778 L 25022 8759 C 25248 8691 25614 8691 25813 8759 C 25851 8772 25872 8775 25876 8768 C 25887 8750 25967 8766 26033 8798 C 26151 8856 26267 8987 26320 9120 C 26373 9252 26388 9522 26350 9658 C 26284 9896 26121 10087 25645 10485 C 25457 10643 25315 10783 25305 10821 C 25302 10835 25308 10870 25320 10904 C 25344 10975 25345 10988 25325 11010 C 25311 11026 25311 11029 25332 11042 C 25380 11074 25435 11084 25540 11083 C 25710 11081 25915 11018 26005 10939 C 26079 10874 26148 10871 26169 10932 C 26184 10975 26184 10975 26144 11019 C 26100 11068 26052 11097 25930 11145 C 25782 11204 25591 11230 25420 11213 z" stroke-linecap="round" />
</g>
<g transform="matrix(0.03 0 0 -0.03 182.77 269.24)" id="DX4wtgOPhySlgkr9PDm9Y"  >
<path style="stroke: none; stroke-width: 1; stroke-dasharray: none; stroke-linecap: butt; stroke-dashoffset: 0; stroke-linejoin: miter; stroke-miterlimit: 4; fill: rgb(0,0,0); fill-rule: nonzero; opacity: 1;" vector-effect="non-scaling-stroke"  transform=" translate(-15173.06, -9885)" d="M 16036 11203 C 16032 11198 15616 11193 15112 11190 C 14115 11185 14154 11187 14121 11129 C 14108 11106 14109 11100 14123 11070 C 14133 11052 14140 11023 14140 11007 C 14140 10959 14180 10916 14243 10896 C 14289 10882 14321 10880 14446 10885 C 14616 10892 14648 10884 14685 10820 C 14705 10786 14705 10768 14710 9760 L 14715 8734 L 14741 8685 C 14794 8580 14872 8560 15225 8560 C 15578 8560 15656 8580 15709 8685 L 15735 8734 L 15740 9760 C 15745 10716 15746 10787 15763 10817 C 15794 10874 15819 10883 15968 10892 C 16117 10900 16175 10919 16214 10973 C 16240 11008 16241 11071 16217 11097 C 16208 11108 16200 11128 16200 11143 C 16200 11183 16158 11210 16095 11210 C 16067 11210 16040 11207 16036 11203 z" stroke-linecap="round" />
</g>
<g transform="matrix(0.03 0 0 -0.03 66.47 269.48)" id="2K26ShQZns1CiEvoe-LMR"  >
<path style="stroke: none; stroke-width: 1; stroke-dasharray: none; stroke-linecap: butt; stroke-dashoffset: 0; stroke-linejoin: miter; stroke-miterlimit: 4; fill: rgb(0,0,0); fill-rule: nonzero; opacity: 1;" vector-effect="non-scaling-stroke"  transform=" translate(-10796.51, -9876.13)" d="M 9617 11103 C 9614 11054 9607 10992 9601 10964 C 9593 10927 9590 10600 9592 9829 C 9595 8748 9595 8745 9616 8700 C 9643 8642 9684 8605 9740 8585 C 9836 8550 10513 8557 10790 8595 C 11139 8643 11392 8760 11626 8982 C 11812 9159 11939 9396 11985 9655 C 12007 9774 12007 10016 11986 10132 C 11954 10308 11893 10463 11804 10597 C 11655 10821 11416 11004 11152 11095 C 10937 11170 10706 11190 10058 11190 L 9622 11190 L 9617 11103 z M 10971 10841 C 11339 10759 11580 10528 11677 10165 C 11700 10077 11703 10045 11704 9900 C 11705 9651 11677 9543 11565 9375 C 11506 9285 11376 9155 11285 9093 C 11119 8981 10897 8903 10726 8897 C 10668 8895 10666 8896 10646 8930 C 10625 8965 10625 8971 10625 9865 C 10625 10715 10626 10767 10643 10802 C 10671 10857 10709 10872 10805 10865 C 10849 10862 10924 10851 10971 10841 z" stroke-linecap="round" />
</g>
<g transform="matrix(0.03 0 0 -0.03 129.24 269.48)" id="9InU4Pvoh-fQeWUqN-Lm0"  >
<path style="stroke: none; stroke-width: 1; stroke-dasharray: none; stroke-linecap: butt; stroke-dashoffset: 0; stroke-linejoin: miter; stroke-miterlimit: 4; fill: rgb(0,0,0); fill-rule: nonzero; opacity: 1;" vector-effect="non-scaling-stroke"  transform=" translate(-13158.79, -9876.16)" d="M 12320 11121 C 12320 11083 12313 11025 12305 10992 C 12292 10941 12290 10791 12292 9834 C 12295 8618 12291 8700 12360 8633 C 12415 8579 12462 8569 12680 8564 C 12787 8561 13096 8562 13365 8567 L 13855 8575 L 13905 8600 C 13957 8626 14000 8677 14000 8713 C 14000 8724 13992 8751 13981 8774 C 13971 8797 13959 8828 13954 8844 C 13940 8889 13908 8895 13746 8881 C 13668 8874 13551 8870 13486 8872 C 13307 8877 13325 8804 13325 9533 L 13325 10135 L 13348 10172 C 13380 10223 13418 10233 13590 10236 C 13672 10237 13748 10242 13764 10249 C 13817 10270 13849 10300 13861 10340 C 13871 10373 13870 10384 13851 10422 C 13840 10446 13830 10473 13830 10481 C 13830 10490 13819 10507 13805 10520 C 13780 10544 13776 10544 13573 10545 L 13367 10545 L 13346 10573 C 13316 10614 13315 10768 13345 10820 C 13385 10888 13407 10892 13652 10886 C 13835 10881 13877 10882 13917 10896 C 14023 10931 14061 11029 13990 11088 C 13974 11102 13960 11121 13960 11130 C 13960 11139 13951 11155 13939 11166 C 13919 11184 13889 11185 13119 11188 L 12320 11190 L 12320 11121 z" stroke-linecap="round" />
</g>
<g transform="matrix(0.03 0 0 -0.03 302.97 269.43)" id="tY4iLm-wl3nNLWt3__LDz"  >
<path style="stroke: none; stroke-width: 1; stroke-dasharray: none; stroke-linecap: butt; stroke-dashoffset: 0; stroke-linejoin: miter; stroke-miterlimit: 4; fill: rgb(0,0,0); fill-rule: nonzero; opacity: 1;" vector-effect="non-scaling-stroke"  transform=" translate(-19695.42, -9878.34)" d="M 18900 11121 C 18900 11083 18893 11025 18885 10992 C 18872 10941 18870 10790 18872 9839 C 18875 8748 18875 8745 18896 8699 C 18924 8640 18963 8604 19025 8583 C 19071 8566 19126 8565 19700 8568 C 20355 8571 20400 8574 20466 8616 C 20519 8652 20537 8736 20500 8783 C 20489 8797 20480 8819 20480 8833 C 20480 8866 20437 8900 20395 8900 C 20378 8900 20341 8893 20314 8884 C 20281 8873 20213 8866 20104 8863 L 19943 8858 L 19924 8896 C 19906 8933 19905 8975 19900 9960 C 19895 10975 19895 10985 19874 11030 C 19862 11055 19839 11088 19822 11102 C 19799 11121 19790 11137 19790 11159 L 19790 11190 L 19345 11190 L 18900 11190 L 18900 11121 z" stroke-linecap="round" />
</g>
<g transform="matrix(0.03 0 0 -0.03 353.53 269.48)" id="33Vj33vDmwCv_yCSr_Xo4"  >
<path style="stroke: none; stroke-width: 1; stroke-dasharray: none; stroke-linecap: butt; stroke-dashoffset: 0; stroke-linejoin: miter; stroke-miterlimit: 4; fill: rgb(0,0,0); fill-rule: nonzero; opacity: 1;" vector-effect="non-scaling-stroke"  transform=" translate(-21598.3, -9876.32)" d="M 20797 11103 C 20795 11054 20788 10986 20781 10950 C 20763 10852 20770 8771 20789 8715 C 20808 8658 20876 8596 20936 8580 C 21008 8562 21296 8558 21820 8568 C 22226 8575 22290 8579 22325 8594 C 22380 8618 22408 8647 22421 8693 C 22430 8728 22428 8738 22406 8782 C 22392 8810 22380 8838 22380 8845 C 22380 8853 22368 8868 22353 8880 C 22322 8904 22291 8904 22170 8875 C 22131 8866 22055 8860 21978 8860 L 21850 8860 L 21833 8887 C 21816 8912 21815 8980 21810 9940 C 21804 11092 21808 11023 21729 11095 C 21700 11121 21690 11138 21690 11160 L 21690 11190 L 21246 11190 L 20801 11190 L 20797 11103 z" stroke-linecap="round" />
</g>
<g transform="matrix(0.03 0 0 -0.03 404.23 269.49)" id="ZpFQLQOJLD4LKvcgGk6s9"  >
<path style="stroke: none; stroke-width: 1; stroke-dasharray: none; stroke-linecap: butt; stroke-dashoffset: 0; stroke-linejoin: miter; stroke-miterlimit: 4; fill: rgb(0,0,0); fill-rule: nonzero; opacity: 1;" vector-effect="non-scaling-stroke"  transform=" translate(-23505.85, -9876.01)" d="M 22680 11124 C 22680 11088 22673 11035 22665 11006 C 22652 10960 22650 10812 22652 9838 L 22655 8723 L 22685 8674 C 22756 8559 22801 8554 23615 8567 C 24277 8577 24270 8576 24325 8642 C 24354 8676 24359 8735 24336 8778 C 24329 8793 24318 8818 24314 8835 C 24298 8888 24269 8896 24128 8882 C 24061 8875 23941 8870 23862 8870 L 23719 8870 L 23699 8915 C 23680 8958 23679 8980 23682 9552 C 23685 10115 23686 10146 23704 10173 C 23739 10224 23771 10233 23930 10235 C 24102 10237 24147 10248 24189 10295 C 24226 10338 24230 10386 24200 10445 C 24189 10467 24180 10490 24180 10497 C 24180 10504 24168 10517 24154 10527 C 24131 10542 24102 10544 23924 10541 L 23719 10539 L 23699 10586 C 23681 10625 23678 10647 23682 10717 C 23687 10811 23703 10842 23761 10873 C 23792 10890 23814 10891 24008 10886 C 24250 10879 24284 10884 24330 10937 C 24366 10977 24370 11029 24342 11075 C 24332 11092 24320 11117 24317 11132 C 24302 11192 24326 11190 23465 11190 L 22680 11190 L 22680 11124 z" stroke-linecap="round" />
</g>
<g transform="matrix(6.07 0 0 0.88 236.09 357.62)" id="ESdsNS5Az3a7YZQRorE1q"  >
<path style="stroke: rgb(50,135,132); stroke-width: 0; stroke-dasharray: none; stroke-linecap: butt; stroke-dashoffset: 0; stroke-linejoin: miter; stroke-miterlimit: 4; fill: rgb(243,239,236); fill-rule: nonzero; opacity: 1;" vector-effect="non-scaling-stroke"  transform=" translate(0, 0)" d="M -34 -34 L 34 -34 L 34 34 L -34 34 z" stroke-linecap="round" />
</g>
<g transform="matrix(0.03 0 0 -0.03 196.05 342.66)" id="rzgf4xwev6WTwHI_FkMXY"  >
<path style="stroke: none; stroke-width: 1; stroke-dasharray: none; stroke-linecap: butt; stroke-dashoffset: 0; stroke-linejoin: miter; stroke-miterlimit: 4; fill: rgb(0,0,0); fill-rule: nonzero; opacity: 1;" vector-effect="non-scaling-stroke"  transform=" translate(-15656.77, -7519.31)" d="M 15705 7645 C 15700 7643 15683 7639 15668 7636 C 15625 7626 15488 7428 15505 7400 C 15517 7380 15577 7390 15621 7420 C 15683 7461 15810 7594 15810 7618 C 15810 7632 15801 7639 15779 7644 C 15746 7650 15722 7651 15705 7645 z" stroke-linecap="round" />
</g>
<g transform="matrix(0.03 0 0 -0.03 248.63 354.59)" id="gq6yxNj9HDE7UzbCFfg7w"  >
<path style="stroke: none; stroke-width: 1; stroke-dasharray: none; stroke-linecap: butt; stroke-dashoffset: 0; stroke-linejoin: miter; stroke-miterlimit: 4; fill: rgb(0,0,0); fill-rule: nonzero; opacity: 1;" vector-effect="non-scaling-stroke"  transform=" translate(-17554.97, -7089.02)" d="M 17826 7620 C 17800 7615 17776 7601 17758 7581 C 17730 7550 17730 7548 17732 7437 C 17734 7375 17731 7315 17727 7303 C 17717 7275 17672 7260 17599 7260 C 17467 7260 17384 7225 17305 7138 C 17149 6966 17128 6687 17262 6590 C 17318 6549 17368 6544 17465 6571 C 17586 6604 17615 6606 17646 6581 C 17676 6557 17743 6553 17783 6571 C 17822 6589 17832 6623 17819 6692 C 17804 6770 17809 6820 17874 7175 C 17941 7544 17945 7580 17928 7601 C 17911 7622 17875 7629 17826 7620 z M 17645 7128 C 17672 7107 17672 7106 17668 7006 C 17659 6812 17586 6688 17469 6673 C 17393 6662 17350 6720 17350 6833 C 17350 6956 17406 7079 17484 7125 C 17538 7157 17606 7159 17645 7128 z" stroke-linecap="round" />
</g>
<g transform="matrix(0.03 0 0 -0.03 404.85 357.08)" id="VslgSq_H7gW88nBymw52z"  >
<path style="stroke: none; stroke-width: 1; stroke-dasharray: none; stroke-linecap: butt; stroke-dashoffset: 0; stroke-linejoin: miter; stroke-miterlimit: 4; fill: rgb(0,0,0); fill-rule: nonzero; opacity: 1;" vector-effect="non-scaling-stroke"  transform=" translate(-23194.73, -6999.26)" d="M 23341 7609 C 23276 7596 23214 7563 23180 7522 C 23163 7502 23133 7445 23113 7396 C 23088 7335 23063 7294 23034 7264 C 23011 7241 22989 7212 22985 7201 C 22981 7188 22988 7152 23001 7113 C 23019 7057 23022 7035 23016 6961 C 23000 6774 22965 6647 22899 6543 C 22822 6421 22840 6373 22960 6382 C 23024 6387 23058 6408 23086 6463 C 23094 6478 23121 6591 23145 6713 C 23210 7043 23226 7080 23314 7130 C 23415 7187 23420 7225 23330 7255 C 23257 7279 23242 7326 23281 7407 C 23309 7464 23347 7484 23414 7476 C 23475 7469 23509 7484 23529 7524 C 23564 7597 23478 7636 23341 7609 z" stroke-linecap="round" />
</g>
<g transform="matrix(0.03 0 0 -0.03 437.5 354.84)" id="Xgod3XfP2FisbA6OqlO-2"  >
<path style="stroke: none; stroke-width: 1; stroke-dasharray: none; stroke-linecap: butt; stroke-dashoffset: 0; stroke-linejoin: miter; stroke-miterlimit: 4; fill: rgb(0,0,0); fill-rule: nonzero; opacity: 1;" vector-effect="non-scaling-stroke"  transform=" translate(-24373.84, -7079.73)" d="M 24394 7613 C 24355 7606 24335 7573 24340 7527 C 24351 7412 24342 7298 24302 7085 C 24279 6964 24249 6827 24235 6780 C 24196 6648 24193 6601 24221 6566 C 24242 6539 24246 6538 24310 6542 C 24432 6551 24476 6600 24446 6692 C 24423 6764 24426 6851 24459 7040 C 24475 7131 24502 7286 24520 7385 C 24560 7611 24558 7621 24473 7619 C 24441 7618 24405 7615 24394 7613 z" stroke-linecap="round" />
</g>
<g transform="matrix(0.03 0 0 -0.03 452.91 343.36)" id="Tm4D3ccO2abFP5aHoSOs6"  >
<path style="stroke: none; stroke-width: 1; stroke-dasharray: none; stroke-linecap: butt; stroke-dashoffset: 0; stroke-linejoin: miter; stroke-miterlimit: 4; fill: rgb(0,0,0); fill-rule: nonzero; opacity: 1;" vector-effect="non-scaling-stroke"  transform=" translate(-24930.2, -7494.64)" d="M 24930 7605 C 24916 7598 24879 7556 24848 7513 C 24790 7433 24766 7387 24777 7376 C 24790 7363 24856 7371 24885 7389 C 24963 7437 25099 7587 25085 7610 C 25076 7625 24959 7622 24930 7605 z" stroke-linecap="round" />
</g>
<g transform="matrix(0.03 0 0 -0.03 177.9 343.6)" id="VVwNVG5us03yLEv6VCQTS"  >
<path style="stroke: none; stroke-width: 1; stroke-dasharray: none; stroke-linecap: butt; stroke-dashoffset: 0; stroke-linejoin: miter; stroke-miterlimit: 4; fill: rgb(0,0,0); fill-rule: nonzero; opacity: 1;" vector-effect="non-scaling-stroke"  transform=" translate(-15001.27, -7485.8)" d="M 14937 7551 C 14906 7513 14895 7458 14912 7422 C 14924 7398 14931 7395 14981 7392 C 15058 7388 15088 7413 15097 7486 C 15105 7555 15082 7580 15011 7580 C 14969 7580 14958 7576 14937 7551 z" stroke-linecap="round" />
</g>
<g transform="matrix(0.03 0 0 -0.03 30.34 355.86)" id="MJag-nu3Ldwf_nN0rL01P"  >
<path style="stroke: none; stroke-width: 1; stroke-dasharray: none; stroke-linecap: butt; stroke-dashoffset: 0; stroke-linejoin: miter; stroke-miterlimit: 4; fill: rgb(0,0,0); fill-rule: nonzero; opacity: 1;" vector-effect="non-scaling-stroke"  transform=" translate(-9674.13, -7043.01)" d="M 9556 7551 C 9486 7541 9466 7501 9483 7405 C 9489 7365 9489 7316 9481 7246 C 9464 7091 9393 6758 9360 6674 C 9324 6584 9323 6565 9354 6545 C 9375 6531 9417 6529 9662 6532 C 9965 6535 9976 6537 9999 6587 C 10019 6631 10022 6684 10007 6705 C 9992 6725 9991 6725 9883 6698 C 9743 6663 9702 6657 9645 6665 C 9570 6677 9563 6696 9585 6833 C 9620 7066 9680 7357 9705 7417 C 9733 7488 9736 7522 9716 7539 C 9698 7554 9618 7560 9556 7551 z" stroke-linecap="round" />
</g>
<g transform="matrix(0.03 0 0 -0.03 357.27 357.2)" id="KOEQZOfP0piBXW4Y8Pb21"  >
<path style="stroke: none; stroke-width: 1; stroke-dasharray: none; stroke-linecap: butt; stroke-dashoffset: 0; stroke-linejoin: miter; stroke-miterlimit: 4; fill: rgb(0,0,0); fill-rule: nonzero; opacity: 1;" vector-effect="non-scaling-stroke"  transform=" translate(-21477.18, -6994.88)" d="M 21458 7445 C 21441 7436 21425 7413 21414 7383 C 21376 7277 21372 7271 21331 7251 C 21271 7220 21249 7162 21290 7140 C 21333 7117 21334 7047 21296 6826 C 21270 6678 21278 6615 21330 6565 C 21368 6529 21442 6520 21523 6544 C 21591 6564 21610 6581 21610 6625 C 21610 6666 21590 6680 21531 6680 C 21451 6680 21442 6748 21495 6956 C 21528 7085 21543 7110 21609 7135 C 21646 7149 21666 7164 21677 7184 C 21694 7217 21691 7222 21610 7273 C 21576 7295 21575 7298 21572 7365 C 21570 7403 21564 7440 21558 7447 C 21544 7464 21492 7463 21458 7445 z" stroke-linecap="round" />
</g>
<g transform="matrix(0.03 0 0 -0.03 191.98 359.29)" id="T7_0AUi_IxPKsUxFp5UQq"  >
<path style="stroke: none; stroke-width: 1; stroke-dasharray: none; stroke-linecap: butt; stroke-dashoffset: 0; stroke-linejoin: miter; stroke-miterlimit: 4; fill: rgb(0,0,0); fill-rule: nonzero; opacity: 1;" vector-effect="non-scaling-stroke"  transform=" translate(-15509.73, -6919.31)" d="M 15465 7277 C 15281 7216 15160 7046 15160 6849 C 15160 6658 15281 6540 15465 6552 C 15649 6564 15802 6709 15850 6919 C 15884 7065 15825 7196 15696 7262 C 15645 7288 15524 7296 15465 7277 z M 15613 7149 C 15665 7109 15683 6986 15655 6875 C 15605 6685 15447 6606 15370 6732 C 15317 6820 15345 7004 15427 7108 C 15477 7170 15563 7189 15613 7149 z" stroke-linecap="round" />
</g>
<g transform="matrix(0.03 0 0 -0.03 139.33 359.94)" id="PUH-x6aF6DravZeehYZZF"  >
<path style="stroke: none; stroke-width: 1; stroke-dasharray: none; stroke-linecap: butt; stroke-dashoffset: 0; stroke-linejoin: miter; stroke-miterlimit: 4; fill: rgb(0,0,0); fill-rule: nonzero; opacity: 1;" vector-effect="non-scaling-stroke"  transform=" translate(-13608.83, -6896)" d="M 13574 7261 C 13433 7225 13321 7108 13275 6946 C 13251 6865 13258 6721 13287 6665 C 13344 6556 13456 6508 13599 6531 C 13775 6559 13901 6694 13947 6904 C 13979 7053 13935 7169 13821 7233 C 13775 7259 13755 7264 13686 7266 C 13641 7268 13591 7265 13574 7261 z M 13730 7115 C 13809 7039 13785 6814 13687 6712 C 13630 6652 13565 6634 13505 6662 C 13446 6689 13419 6788 13439 6906 C 13458 7011 13517 7106 13585 7137 C 13630 7157 13696 7148 13730 7115 z" stroke-linecap="round" />
</g>
<g transform="matrix(0.03 0 0 -0.03 52.01 359.84)" id="0yzFCJH16l9i39_hgwY6U"  >
<path style="stroke: none; stroke-width: 1; stroke-dasharray: none; stroke-linecap: butt; stroke-dashoffset: 0; stroke-linejoin: miter; stroke-miterlimit: 4; fill: rgb(0,0,0); fill-rule: nonzero; opacity: 1;" vector-effect="non-scaling-stroke"  transform=" translate(-10456.39, -6899.34)" d="M 10403 7241 C 10222 7174 10110 7002 10110 6791 C 10110 6726 10115 6697 10131 6664 C 10171 6580 10259 6531 10343 6544 C 10364 6548 10412 6566 10450 6585 C 10532 6626 10554 6628 10575 6597 C 10618 6530 10742 6539 10780 6611 C 10795 6637 10786 6687 10762 6713 C 10738 6740 10742 6818 10779 7018 C 10801 7135 10807 7188 10800 7205 C 10795 7219 10787 7230 10783 7231 C 10778 7231 10737 7236 10690 7241 C 10508 7262 10458 7262 10403 7241 z M 10587 7124 C 10626 7071 10577 6828 10510 6742 C 10481 6706 10421 6670 10389 6670 C 10353 6670 10314 6703 10300 6746 C 10280 6806 10292 6928 10323 6992 C 10354 7055 10409 7116 10454 7136 C 10495 7155 10570 7148 10587 7124 z" stroke-linecap="round" />
</g>
<g transform="matrix(0.03 0 0 -0.03 85.34 359.94)" id="RiJ9AmnJduXd4A9WWjQe7"  >
<path style="stroke: none; stroke-width: 1; stroke-dasharray: none; stroke-linecap: butt; stroke-dashoffset: 0; stroke-linejoin: miter; stroke-miterlimit: 4; fill: rgb(0,0,0); fill-rule: nonzero; opacity: 1;" vector-effect="non-scaling-stroke"  transform=" translate(-11660, -6895.77)" d="M 11643 7245 C 11471 7192 11340 7006 11340 6814 C 11340 6621 11452 6519 11651 6533 C 11764 6540 11883 6599 11890 6650 C 11898 6707 11873 6718 11792 6694 C 11659 6655 11588 6659 11550 6708 C 11527 6736 11523 6802 11543 6817 C 11549 6823 11617 6839 11693 6853 C 11923 6896 11980 6936 11980 7053 C 11980 7126 11962 7168 11915 7207 C 11853 7258 11736 7275 11643 7245 z M 11792 7126 C 11817 7108 11830 7066 11821 7034 C 11811 6996 11743 6963 11645 6949 C 11547 6936 11536 6940 11543 6985 C 11556 7064 11648 7140 11729 7140 C 11755 7140 11783 7134 11792 7126 z" stroke-linecap="round" />
</g>
<g transform="matrix(0.03 0 0 -0.03 111.34 359.69)" id="CYqYCfNmsW97j935K2ukX"  >
<path style="stroke: none; stroke-width: 1; stroke-dasharray: none; stroke-linecap: butt; stroke-dashoffset: 0; stroke-linejoin: miter; stroke-miterlimit: 4; fill: rgb(0,0,0); fill-rule: nonzero; opacity: 1;" vector-effect="non-scaling-stroke"  transform=" translate(-12598.52, -6904.81)" d="M 12470 7241 C 12445 7231 12405 7211 12380 7197 L 12336 7171 L 12310 7202 C 12290 7226 12276 7233 12251 7232 C 12180 7230 12142 7160 12129 7011 C 12124 6953 12111 6859 12100 6802 C 12073 6665 12074 6629 12103 6602 C 12132 6574 12170 6574 12199 6601 C 12228 6628 12235 6649 12271 6797 C 12319 6999 12351 7060 12427 7099 C 12452 7112 12499 7113 12517 7102 C 12557 7077 12554 7016 12499 6738 C 12481 6652 12470 6574 12473 6566 C 12481 6547 12575 6544 12614 6561 C 12645 6576 12646 6576 12670 6723 C 12715 6990 12769 7100 12856 7100 C 12893 7100 12924 7068 12935 7020 C 12938 7004 12934 6930 12925 6856 C 12900 6651 12921 6580 13006 6580 C 13024 6580 13048 6588 13060 6598 C 13080 6614 13083 6626 13084 6711 C 13085 6763 13094 6869 13105 6946 C 13127 7113 13120 7157 13063 7212 C 13032 7242 13024 7245 12966 7245 C 12915 7245 12890 7238 12822 7207 L 12740 7168 L 12703 7200 C 12633 7262 12556 7276 12470 7241 z" stroke-linecap="round" />
</g>
<g transform="matrix(0.03 0 0 -0.03 159.86 360)" id="xvLA5FxwS4Kz3Qz0txEiW"  >
<path style="stroke: none; stroke-width: 1; stroke-dasharray: none; stroke-linecap: butt; stroke-dashoffset: 0; stroke-linejoin: miter; stroke-miterlimit: 4; fill: rgb(0,0,0); fill-rule: nonzero; opacity: 1;" vector-effect="non-scaling-stroke"  transform=" translate(-14350.56, -6893.54)" d="M 14357 7249 C 14168 7204 14029 6999 14042 6780 C 14049 6660 14104 6578 14205 6540 C 14253 6521 14380 6526 14445 6549 C 14544 6584 14602 6647 14569 6686 C 14553 6705 14529 6704 14441 6679 C 14278 6633 14211 6688 14223 6859 C 14231 6975 14286 7077 14361 7116 C 14405 7138 14470 7134 14511 7106 C 14571 7065 14595 7063 14630 7098 C 14684 7152 14664 7208 14578 7245 C 14537 7261 14420 7264 14357 7249 z" stroke-linecap="round" />
</g>
<g transform="matrix(0.03 0 0 -0.03 174.76 359.84)" id="eruFlXsri6vHlgfca5Oyn"  >
<path style="stroke: none; stroke-width: 1; stroke-dasharray: none; stroke-linecap: butt; stroke-dashoffset: 0; stroke-linejoin: miter; stroke-miterlimit: 4; fill: rgb(0,0,0); fill-rule: nonzero; opacity: 1;" vector-effect="non-scaling-stroke"  transform=" translate(-14888.21, -6899.63)" d="M 14875 7253 C 14864 7250 14847 7241 14836 7231 C 14818 7215 14817 7190 14836 7077 C 14844 7027 14815 6855 14779 6746 C 14722 6576 14729 6540 14818 6540 C 14894 6541 14943 6556 14973 6590 C 15005 6626 15007 6660 14983 6737 C 14967 6790 14967 6792 15004 7010 C 15034 7186 15039 7234 15030 7245 C 15018 7260 14923 7264 14875 7253 z" stroke-linecap="round" />
</g>
<g transform="matrix(0.03 0 0 -0.03 269.81 359.94)" id="8J-5YqHnwDOsa--_Q5vvI"  >
<path style="stroke: none; stroke-width: 1; stroke-dasharray: none; stroke-linecap: butt; stroke-dashoffset: 0; stroke-linejoin: miter; stroke-miterlimit: 4; fill: rgb(0,0,0); fill-rule: nonzero; opacity: 1;" vector-effect="non-scaling-stroke"  transform=" translate(-18320, -6895.77)" d="M 18303 7245 C 18131 7192 18000 7006 18000 6814 C 18000 6621 18112 6519 18311 6533 C 18424 6540 18543 6599 18550 6650 C 18558 6707 18533 6718 18452 6694 C 18319 6655 18248 6659 18210 6708 C 18187 6736 18183 6802 18203 6817 C 18209 6823 18277 6839 18353 6853 C 18583 6896 18640 6936 18640 7053 C 18640 7126 18622 7168 18575 7207 C 18513 7258 18396 7275 18303 7245 z M 18452 7126 C 18477 7108 18490 7066 18481 7034 C 18471 6996 18403 6963 18305 6949 C 18207 6936 18196 6940 18203 6985 C 18216 7064 18308 7140 18389 7140 C 18415 7140 18443 7134 18452 7126 z" stroke-linecap="round" />
</g>
<g transform="matrix(0.03 0 0 -0.03 302.6 359.95)" id="VW3YNSiC8CrXqP1JVOa00"  >
<path style="stroke: none; stroke-width: 1; stroke-dasharray: none; stroke-linecap: butt; stroke-dashoffset: 0; stroke-linejoin: miter; stroke-miterlimit: 4; fill: rgb(0,0,0); fill-rule: nonzero; opacity: 1;" vector-effect="non-scaling-stroke"  transform=" translate(-19503.56, -6895.49)" d="M 19207 7248 C 19159 7231 19158 7160 19204 7059 C 19221 7023 19239 6943 19260 6815 C 19295 6593 19303 6565 19336 6543 C 19367 6523 19443 6530 19472 6556 C 19547 6624 19820 7101 19834 7190 C 19844 7251 19830 7264 19759 7257 C 19682 7250 19662 7235 19644 7170 C 19596 6997 19550 6886 19486 6786 C 19466 6755 19446 6731 19441 6734 C 19430 6741 19413 6860 19395 7060 C 19382 7207 19380 7216 19355 7237 C 19326 7262 19259 7267 19207 7248 z" stroke-linecap="round" />
</g>
<g transform="matrix(0.03 0 0 -0.03 322.08 359.99)" id="FtfuTyh-urBv6M5p1jOh7"  >
<path style="stroke: none; stroke-width: 1; stroke-dasharray: none; stroke-linecap: butt; stroke-dashoffset: 0; stroke-linejoin: miter; stroke-miterlimit: 4; fill: rgb(0,0,0); fill-rule: nonzero; opacity: 1;" vector-effect="non-scaling-stroke"  transform=" translate(-20206.76, -6894.09)" d="M 20204 7251 C 20003 7199 19855 6962 19890 6747 C 19911 6613 19996 6540 20140 6532 C 20286 6524 20447 6598 20438 6669 C 20433 6712 20409 6717 20328 6691 C 20204 6651 20109 6665 20081 6727 C 20049 6796 20078 6825 20200 6845 C 20419 6882 20488 6912 20516 6985 C 20528 7017 20531 7045 20527 7081 C 20514 7191 20439 7252 20311 7256 C 20269 7258 20221 7256 20204 7251 z M 20345 7115 C 20380 7081 20379 7029 20344 7001 C 20311 6975 20240 6953 20161 6945 C 20088 6937 20078 6944 20090 6997 C 20099 7036 20126 7069 20184 7111 C 20237 7150 20309 7152 20345 7115 z" stroke-linecap="round" />
</g>
<g transform="matrix(0.03 0 0 -0.03 341.31 359.68)" id="5GbH6SLKkcA9oJlscm4tn"  >
<path style="stroke: none; stroke-width: 1; stroke-dasharray: none; stroke-linecap: butt; stroke-dashoffset: 0; stroke-linejoin: miter; stroke-miterlimit: 4; fill: rgb(0,0,0); fill-rule: nonzero; opacity: 1;" vector-effect="non-scaling-stroke"  transform=" translate(-20901.3, -6905)" d="M 20743 7250 C 20705 7234 20697 7203 20695 7066 C 20694 6956 20688 6907 20655 6759 C 20634 6662 20620 6575 20623 6566 C 20628 6554 20644 6550 20694 6550 C 20730 6550 20770 6555 20784 6561 C 20821 6578 20839 6635 20849 6772 C 20859 6896 20872 6951 20911 7019 C 20938 7068 20971 7086 21061 7105 C 21146 7123 21180 7150 21180 7204 C 21180 7246 21164 7260 21116 7260 C 21065 7260 21008 7234 20950 7185 L 20905 7147 L 20899 7189 C 20896 7212 20888 7236 20882 7242 C 20867 7257 20771 7263 20743 7250 z" stroke-linecap="round" />
</g>
<g transform="matrix(0.03 0 0 -0.03 374.22 359.95)" id="auz8DpBaFZsZAW-cSoVGX"  >
<path style="stroke: none; stroke-width: 1; stroke-dasharray: none; stroke-linecap: butt; stroke-dashoffset: 0; stroke-linejoin: miter; stroke-miterlimit: 4; fill: rgb(0,0,0); fill-rule: nonzero; opacity: 1;" vector-effect="non-scaling-stroke"  transform=" translate(-22089.19, -6895.28)" d="M 22075 7246 C 21937 7202 21835 7097 21790 6953 C 21767 6879 21763 6759 21782 6698 C 21800 6637 21861 6575 21928 6550 C 22069 6496 22320 6569 22320 6663 C 22320 6710 22297 6716 22212 6692 C 22100 6662 22089 6660 22046 6670 C 21992 6682 21956 6720 21956 6765 C 21956 6784 21963 6806 21971 6814 C 21978 6821 22048 6839 22125 6854 C 22280 6884 22359 6914 22386 6956 C 22397 6972 22406 7007 22408 7044 C 22414 7146 22359 7223 22261 7250 C 22213 7263 22124 7262 22075 7246 z M 22227 7118 C 22254 7093 22259 7030 22235 7006 C 22210 6982 22120 6953 22043 6945 L 21970 6938 L 21970 6969 C 21970 7084 22151 7189 22227 7118 z" stroke-linecap="round" />
</g>
<g transform="matrix(0.03 0 0 -0.03 421.05 359.94)" id="nD6bZgYvx3d_UjeTMPfUw"  >
<path style="stroke: none; stroke-width: 1; stroke-dasharray: none; stroke-linecap: butt; stroke-dashoffset: 0; stroke-linejoin: miter; stroke-miterlimit: 4; fill: rgb(0,0,0); fill-rule: nonzero; opacity: 1;" vector-effect="non-scaling-stroke"  transform=" translate(-23780, -6895.77)" d="M 23763 7245 C 23591 7192 23460 7006 23460 6814 C 23460 6621 23572 6519 23771 6533 C 23884 6540 24003 6599 24010 6650 C 24018 6707 23993 6718 23912 6694 C 23779 6655 23708 6659 23670 6708 C 23647 6736 23643 6802 23663 6817 C 23669 6823 23737 6839 23813 6853 C 24043 6896 24100 6936 24100 7053 C 24100 7126 24082 7168 24035 7207 C 23973 7258 23856 7275 23763 7245 z M 23912 7126 C 23937 7108 23950 7066 23941 7034 C 23931 6996 23863 6963 23765 6949 C 23667 6936 23656 6940 23663 6985 C 23676 7064 23768 7140 23849 7140 C 23875 7140 23903 7134 23912 7126 z" stroke-linecap="round" />
</g>
<g transform="matrix(0.03 0 0 -0.03 448.9 359.84)" id="spvVaJpSqE9zptvvB9ezc"  >
<path style="stroke: none; stroke-width: 1; stroke-dasharray: none; stroke-linecap: butt; stroke-dashoffset: 0; stroke-linejoin: miter; stroke-miterlimit: 4; fill: rgb(0,0,0); fill-rule: nonzero; opacity: 1;" vector-effect="non-scaling-stroke"  transform=" translate(-24785.46, -6899.58)" d="M 24753 7253 C 24715 7246 24687 7201 24694 7160 C 24714 7050 24711 6993 24681 6818 C 24633 6547 24636 6534 24750 6542 C 24829 6548 24873 6569 24890 6610 C 24901 6636 24899 6650 24879 6712 L 24856 6785 L 24888 6975 C 24923 7180 24927 7229 24908 7248 C 24897 7259 24802 7263 24753 7253 z" stroke-linecap="round" />
</g>
<g transform="matrix(0.03 0 0 -0.03 464.39 359.79)" id="_MsP_4lTzauq5vl4cmqrZ"  >
<path style="stroke: none; stroke-width: 1; stroke-dasharray: none; stroke-linecap: butt; stroke-dashoffset: 0; stroke-linejoin: miter; stroke-miterlimit: 4; fill: rgb(0,0,0); fill-rule: nonzero; opacity: 1;" vector-effect="non-scaling-stroke"  transform=" translate(-25344.36, -6901.2)" d="M 25173 7250 C 25138 7236 25118 7197 25122 7148 L 25125 7105 L 25165 7107 C 25187 7108 25253 7112 25313 7116 C 25385 7121 25420 7119 25420 7112 C 25420 7098 25348 7011 25182 6825 C 25028 6654 25007 6624 25012 6582 L 25015 6555 L 25250 6547 C 25505 6538 25549 6543 25576 6585 C 25585 6599 25590 6625 25588 6652 L 25585 6695 L 25434 6691 C 25328 6689 25281 6691 25276 6699 C 25267 6713 25297 6752 25497 6978 C 25661 7163 25695 7215 25670 7245 C 25660 7257 25617 7260 25426 7259 C 25299 7259 25185 7255 25173 7250 z" stroke-linecap="round" />
</g>
<g transform="matrix(0.03 0 0 -0.03 213.47 359.86)" id="JqWPNfXWaN93EZ5Tif2vF"  >
<path style="stroke: none; stroke-width: 1; stroke-dasharray: none; stroke-linecap: butt; stroke-dashoffset: 0; stroke-linejoin: miter; stroke-miterlimit: 4; fill: rgb(0,0,0); fill-rule: nonzero; opacity: 1;" vector-effect="non-scaling-stroke"  transform=" translate(-16285.76, -6898.74)" d="M 16415 7243 C 16374 7234 16334 7216 16282 7182 C 16253 7163 16227 7150 16224 7153 C 16221 7156 16211 7173 16202 7191 C 16180 7235 16138 7248 16088 7227 C 16031 7203 16018 7167 16009 7005 C 16004 6902 15993 6832 15970 6737 C 15953 6667 15942 6601 15945 6589 C 15953 6565 15988 6550 16035 6550 C 16060 6550 16075 6558 16093 6580 C 16125 6617 16124 6614 16155 6789 C 16186 6963 16208 7018 16268 7070 C 16343 7137 16417 7134 16446 7064 C 16462 7026 16462 7022 16429 6815 C 16392 6579 16410 6532 16531 6559 C 16594 6573 16603 6590 16596 6680 C 16592 6732 16597 6802 16612 6905 C 16635 7068 16632 7124 16600 7178 C 16568 7231 16487 7259 16415 7243 z" stroke-linecap="round" />
</g>
</svg>